<svg xmlns="http://www.w3.org/2000/svg" fill="none" viewBox="0 0 27 27">
  <path fill-rule="evenodd" clip-rule="evenodd" d="M13.07 4.357c-4.804 0-8.713 3.91-8.713 8.714s3.909 8.713 8.713 8.713c4.805 0 8.714-3.909 8.714-8.713 0-4.805-3.909-8.714-8.713-8.714m0 19.605c-6.006 0-10.893-4.886-10.893-10.892 0-6.006 4.887-10.892 10.892-10.892 6.006 0 10.893 4.886 10.893 10.892 0 6.006-4.887 10.892-10.893 10.892" fill="#4062DD" fill-opacity=".85"/>
  <path fill-rule="evenodd" clip-rule="evenodd" d="M13.07 4.357c-4.804 0-8.713 3.91-8.713 8.714s3.909 8.713 8.713 8.713c4.805 0 8.714-3.909 8.714-8.713 0-4.805-3.909-8.714-8.713-8.714m0 19.605c-6.006 0-10.893-4.886-10.893-10.892 0-6.006 4.887-10.892 10.892-10.892 6.006 0 10.893 4.886 10.893 10.892 0 6.006-4.887 10.892-10.893 10.892" fill="#5978E8"/>
</svg>
