<svg xmlns="http://www.w3.org/2000/svg" fill="none" viewBox="0 0 20 26">
  <path d="M5.334 4.935c.361.478.27 1.162-.203 1.527a7.642 7.642 0 00-2.975 6.07c0 3.811 2.765 6.97 6.378 7.537l-.765-.773a1.098 1.098 0 010-1.541 1.07 1.07 0 011.525 0l2.695 2.724a1.098 1.098 0 010 1.541l-2.695 2.725a1.07 1.07 0 01-1.525 0 1.098 1.098 0 010-1.542l.91-.918C3.8 21.768 0 17.6 0 12.532a9.829 9.829 0 013.823-7.803 1.07 1.07 0 011.511.206zm2.081-1.891L10.11.318a1.07 1.07 0 011.525 0 1.1 1.1 0 01.09 1.439l-.09.102-.91.918c4.878.517 8.68 4.687 8.68 9.754a9.83 9.83 0 01-3.528 7.565 1.07 1.07 0 01-1.517-.146 1.098 1.098 0 01.144-1.535 7.641 7.641 0 002.744-5.884c0-3.811-2.765-6.97-6.377-7.537l.764.773a1.098 1.098 0 010 1.541 1.07 1.07 0 01-1.423.09l-.102-.09-2.695-2.724a1.099 1.099 0 01-.09-1.439l.09-.103L10.11.32 7.415 3.043z" fill="#FDFBF7"/>
  <ellipse cx="9.702" cy="12.389" rx="2.553" ry="2.581" fill="#D6455B"/>
</svg>
