<svg xmlns="http://www.w3.org/2000/svg" fill="none" viewBox="0 0 22 22">
  <path d="M5.5 2.75h11a2.75 2.75 0 012.75 2.75v11a2.75 2.75 0 01-2.75 2.75h-11a2.75 2.75 0 01-2.75-2.75v-11A2.75 2.75 0 015.5 2.75zm0 1.833a.917.917 0 00-.917.917v11c0 .506.41.917.917.917h11c.506 0 .917-.41.917-.917v-11a.917.917 0 00-.917-.917h-11z" fill="#4062DD" fill-opacity=".85"/>
  <path d="M5.5 2.75h11a2.75 2.75 0 012.75 2.75v11a2.75 2.75 0 01-2.75 2.75h-11a2.75 2.75 0 01-2.75-2.75v-11A2.75 2.75 0 015.5 2.75zm0 1.833a.917.917 0 00-.917.917v11c0 .506.41.917.917.917h11c.506 0 .917-.41.917-.917v-11a.917.917 0 00-.917-.917h-11z" fill="#5978E8"/>
</svg>
