<svg xmlns="http://www.w3.org/2000/svg" fill="none" viewBox="0 0 80 101">
  <path d="M21.337 19.74c1.444 1.914 1.08 4.649-.814 6.109-7.447 5.74-11.899 14.632-11.899 24.279 0 15.244 11.06 27.878 25.51 30.148l-3.056-3.092a4.392 4.392 0 010-6.165 4.28 4.28 0 016.098 0l10.78 10.898a4.393 4.393 0 010 6.164L37.176 98.98a4.279 4.279 0 01-6.099 0 4.392 4.392 0 010-6.165l3.636-3.672C15.205 87.074 0 70.396 0 50.128 0 37.733 5.73 26.29 15.293 18.917a4.281 4.281 0 016.044.822zm8.324-7.566l10.78-10.897a4.28 4.28 0 016.099 0 4.395 4.395 0 01.358 5.754l-.358.41-3.636 3.672c19.508 2.068 34.713 18.747 34.713 39.015 0 11.855-5.24 22.854-14.107 30.259a4.28 4.28 0 01-6.071-.585c-1.517-1.856-1.258-4.604.578-6.137 6.905-5.765 10.976-14.31 10.976-23.537 0-15.245-11.06-27.878-25.51-30.15l3.057 3.093a4.393 4.393 0 010 6.165 4.279 4.279 0 01-5.692.362l-.407-.362-10.78-10.898a4.395 4.395 0 01-.359-5.753l.36-.411 10.78-10.897-10.78 10.897z" fill="#FDFBF7"/>
  <ellipse cx="38.809" cy="49.556" rx="10.213" ry="10.324" fill="#D6455B"/>
</svg>
