<svg xmlns="http://www.w3.org/2000/svg" fill="none" viewBox="0 0 22 22">
  <path fill-rule="evenodd" clip-rule="evenodd" d="M18.333 10.847a.917.917 0 00-.916.917v5.102a.551.551 0 01-.55.551H5.133a.551.551 0 01-.55-.55V5.133a.55.55 0 01.55-.55h8.77a.917.917 0 000-1.834h-8.77A2.386 2.386 0 002.75 5.134v11.732a2.387 2.387 0 002.383 2.384h11.734a2.387 2.387 0 002.383-2.384v-5.102a.917.917 0 00-.917-.917" fill="#FDFBF7"/>
  <path fill-rule="evenodd" clip-rule="evenodd" d="M9.83 10.065a.917.917 0 10-1.326 1.266l2.037 2.135c.173.18.411.284.66.285h.004a.913.913 0 00.658-.28l6.213-6.417a.917.917 0 10-1.318-1.275l-5.548 5.732-1.38-1.446z" fill="#4062DD" fill-opacity=".85"/>
  <path fill-rule="evenodd" clip-rule="evenodd" d="M9.83 10.065a.917.917 0 10-1.326 1.266l2.037 2.135c.173.18.411.284.66.285h.004a.913.913 0 00.658-.28l6.213-6.417a.917.917 0 10-1.318-1.275l-5.548 5.732-1.38-1.446z" fill="#5978E8"/>
</svg>
