<svg xmlns="http://www.w3.org/2000/svg" fill="none" viewBox="0 0 22 22">
  <path fill-rule="evenodd" clip-rule="evenodd" d="M10.688 3.563c-3.93 0-7.126 3.196-7.126 7.125 0 3.928 3.197 7.125 7.126 7.125 3.928 0 7.124-3.197 7.124-7.125a7.133 7.133 0 00-7.125-7.125m0 16.03c-4.91 0-8.906-3.995-8.906-8.906 0-4.91 3.996-8.906 8.906-8.906 4.911 0 8.907 3.995 8.907 8.906 0 4.911-3.996 8.907-8.907 8.907" fill="#4062DD" fill-opacity=".85"/>
  <path fill-rule="evenodd" clip-rule="evenodd" d="M10.688 3.563c-3.93 0-7.126 3.196-7.126 7.125 0 3.928 3.197 7.125 7.126 7.125 3.928 0 7.124-3.197 7.124-7.125a7.133 7.133 0 00-7.125-7.125m0 16.03c-4.91 0-8.906-3.995-8.906-8.906 0-4.91 3.996-8.906 8.906-8.906 4.911 0 8.907 3.995 8.907 8.906 0 4.911-3.996 8.907-8.907 8.907" fill="#5978E8"/>
</svg>
